<svg width="14" height="14" viewBox="0 0 14 14" fill="none" xmlns="http://www.w3.org/2000/svg">
<path d="M8.58907 7L13.3844 2.20469C13.8203 1.76875 13.8203 1.05156 13.3844 0.615627C12.9484 0.179689 12.2313 0.179689 11.7953 0.615627L7 5.41094L2.20469 0.615627C1.76875 0.179689 1.05156 0.179689 0.615625 0.615627C0.397656 0.833595 0.285156 1.12188 0.285156 1.41016C0.285156 1.69844 0.397656 1.98672 0.615625 2.20469L5.41094 7L0.615625 11.7953C0.397656 12.0133 0.285156 12.3016 0.285156 12.5898C0.285156 12.8781 0.397656 13.1664 0.615625 13.3844C1.05156 13.8203 1.76875 13.8203 2.20469 13.3844L7 8.58906L11.7953 13.3844C12.2313 13.8203 12.9484 13.8203 13.3844 13.3844C13.8203 12.9484 13.8203 12.2313 13.3844 11.7953L8.58907 7Z" fill="black"/>
</svg>
