<svg width="16" height="15" viewBox="0 0 16 15" fill="none" xmlns="http://www.w3.org/2000/svg">
<path d="M1 13.3333C1 11.6151 3.08934 10.2222 5.66666 10.2222C8.24399 10.2222 10.3333 11.6151 10.3333 13.3333" stroke="#EB5757" stroke-width="1.5" stroke-linecap="round" stroke-linejoin="round"/>
<path d="M11.3583 8.91376C11.0654 9.20665 11.0654 9.68153 11.3583 9.97442C11.6512 10.2673 12.1261 10.2673 12.419 9.97442L11.3583 8.91376ZM15.5301 6.86334C15.823 6.57044 15.823 6.09557 15.5301 5.80268C15.2372 5.50978 14.7623 5.50978 14.4694 5.80268L15.5301 6.86334ZM12.419 9.97442L15.5301 6.86334L14.4694 5.80268L11.3583 8.91376L12.419 9.97442Z" fill="#EB5757"/>
<path d="M12.419 5.80268C12.1261 5.50978 11.6512 5.50978 11.3583 5.80268C11.0654 6.09557 11.0654 6.57044 11.3583 6.86334L12.419 5.80268ZM14.4694 9.97442C14.7623 10.2673 15.2372 10.2673 15.5301 9.97442C15.823 9.68153 15.823 9.20665 15.5301 8.91376L14.4694 9.97442ZM11.3583 6.86334L14.4694 9.97442L15.5301 8.91376L12.419 5.80268L11.3583 6.86334Z" fill="#EB5757"/>
<path d="M5.6658 7.88872C7.38402 7.88872 8.77691 6.49583 8.77691 4.77761C8.77691 3.05939 7.38402 1.6665 5.6658 1.6665C3.94758 1.6665 2.55469 3.05939 2.55469 4.77761C2.55469 6.49583 3.94758 7.88872 5.6658 7.88872Z" stroke="#EB5757" stroke-width="1.5" stroke-linecap="round" stroke-linejoin="round"/>
</svg>
