<svg width="16" height="18" viewBox="0 0 16 18" fill="none" xmlns="http://www.w3.org/2000/svg">
<rect x="1" y="5" width="14" height="12" rx="4" stroke="#4C70F2" stroke-width="1.5"/>
<rect x="6" y="8" width="4" height="6" rx="2" stroke="#4C70F2" stroke-width="1.5"/>
<path d="M4.25 5C4.25 5.41421 4.58579 5.75 5 5.75C5.41421 5.75 5.75 5.41421 5.75 5H4.25ZM9.44037 2.46045C9.71613 2.76952 10.1902 2.79653 10.4993 2.52076C10.8084 2.245 10.8354 1.7709 10.5596 1.46182L9.44037 2.46045ZM5.75 5V4.12H4.25V5H5.75ZM5.75 4.12C5.75 2.75942 6.76408 1.75 7.90368 1.75V0.25C5.83597 0.25 4.25 2.03432 4.25 4.12H5.75ZM7.90368 1.75C8.49588 1.75 9.04169 2.01361 9.44037 2.46045L10.5596 1.46182C9.9013 0.723966 8.95946 0.25 7.90368 0.25V1.75Z" fill="#4C70F2"/>
</svg>
