<svg width="14" height="16" viewBox="0 0 14 16" fill="none" xmlns="http://www.w3.org/2000/svg">
<path d="M7.00195 8L7.00195 12.6666" stroke="#4C70F2" stroke-width="1.5" stroke-linecap="round" stroke-linejoin="round"/>
<path d="M9.33461 11.1108L7.00129 12.6664L4.66797 11.1108" stroke="#4C70F2" stroke-width="1.5" stroke-linecap="round" stroke-linejoin="round"/>
<path d="M11.6677 14.9999H2.33442C1.90486 14.9999 1.55664 14.6517 1.55664 14.2221L1.55664 1.77777C1.55664 1.34822 1.90486 1 2.33441 1L8.21678 1C8.43344 1 8.64028 1.09037 8.78748 1.24935L12.2384 4.97634C12.3715 5.12011 12.4455 5.30882 12.4455 5.50476L12.4455 14.2221C12.4455 14.6517 12.0973 14.9999 11.6677 14.9999Z" stroke="#4C70F2" stroke-width="1.5" stroke-linecap="round" stroke-linejoin="round"/>
<path d="M12.445 5.66664L8.55609 5.66664C8.12654 5.66664 7.77832 5.31842 7.77832 4.88887L7.77832 1" stroke="#4C70F2" stroke-width="1.5" stroke-linecap="round" stroke-linejoin="round"/>
</svg>
