<svg width="24" height="24" viewBox="0 0 24 24" fill="none" xmlns="http://www.w3.org/2000/svg">
    <path d="M9 7V5a2 2 0 0 1 2-2h2a2 2 0 0 1 2 2v2H9zM17.416 21H6.584A2.584 2.584 0 0 1 4 18.416c0-2.872.897-5.672 2.567-8.01l1.835-2.568A2 2 0 0 1 10.029 7h3.942a2 2 0 0 1 1.627.838l1.835 2.568A13.78 13.78 0 0 1 20 18.416 2.584 2.584 0 0 1 17.416 21z" stroke="#4EC27E" stroke-width="2"/>
    <path d="M11.493 9.503v.578c-1.135.211-1.993 1.11-1.993 2.187 0 .739.414 1.724 2.377 2.222 1.069.272 1.614.689 1.614 1.242 0 .679-.666 1.232-1.489 1.232-.822 0-1.488-.553-1.488-1.232a.505.505 0 0 0-1.009 0c0 1.076.858 1.98 1.993 2.187v.578a.505.505 0 0 0 1.009 0v-.578c1.135-.211 1.993-1.11 1.993-2.187 0-.739-.414-1.724-2.377-2.217-1.069-.272-1.614-.689-1.614-1.247 0-.679.666-1.232 1.489-1.232.822 0 1.488.553 1.488 1.232a.505.505 0 0 0 1.009 0c0-1.076-.858-1.98-1.993-2.187v-.578a.505.505 0 0 0-1.009 0z" fill="#4EC27E" stroke="#4EC27E" stroke-width=".417"/>
</svg>
