<svg width="164" height="136" viewBox="0 0 164 136" fill="none" xmlns="http://www.w3.org/2000/svg">
<path fill-rule="evenodd" clip-rule="evenodd" d="M116.831 10.4026C145.091 28.0893 171.425 56.8519 162.081 89.5759C152.541 122.984 115.068 135.088 80.9788 135.958C48.0706 136.798 12.9924 125.228 2.54933 93.6473C-7.62891 62.867 14.23 32.5862 40.4749 13.4689C63.5062 -3.3076 93.0091 -4.50608 116.831 10.4026Z" fill="#EDFCF3"/>
<path fill-rule="evenodd" clip-rule="evenodd" d="M109.449 24.2963C131.634 38.1843 152.317 60.7517 145.016 86.3921C137.561 112.568 108.175 122.022 81.4339 122.673C55.619 123.302 28.091 114.203 19.8711 89.4405C11.8596 65.3061 28.9808 41.5918 49.5526 26.6313C67.6053 13.5027 90.7485 12.5898 109.449 24.2963Z" fill="#D9F5E4"/>
<path fill-rule="evenodd" clip-rule="evenodd" d="M99.7382 42.6079C113.866 51.4544 127.045 65.8184 122.416 82.116C117.691 98.7543 98.9971 104.744 81.9799 105.138C65.5521 105.519 48.0272 99.7138 42.7786 83.9633C37.663 68.6121 48.5418 53.5464 61.6227 44.049C73.1019 35.7146 87.8292 35.1509 99.7382 42.6079Z" fill="#29B564"/>
<path d="M73.998 72.5714L81.1409 79.7143L93.998 64" stroke="white" stroke-width="4" stroke-linecap="round" stroke-linejoin="round"/>
</svg>
